<?xml version="1.0" encoding="UTF-8" standalone="no"?>
<!DOCTYPE svg PUBLIC "-//W3C//DTD SVG 1.1//EN"
 "http://www.w3.org/Graphics/SVG/1.1/DTD/svg11.dtd">
<!-- Generated by graphviz version 2.43.0 (0)
 -->
<!-- Title: G Pages: 1 -->
<svg width="651pt" height="152pt"
 viewBox="0.00 0.00 651.00 152.00" xmlns="http://www.w3.org/2000/svg" xmlns:xlink="http://www.w3.org/1999/xlink">
<g id="graph0" class="graph" transform="scale(1 1) rotate(0) translate(4 148)">
<title>G</title>
<polygon fill="white" stroke="transparent" points="-4,4 -4,-148 647,-148 647,4 -4,4"/>
<!-- aws_internet_gateway.myigw -->
<g id="node1" class="node">
<title>aws_internet_gateway.myigw</title>
<polygon fill="none" stroke="black" points="362,-144 152,-144 152,-108 362,-108 362,-144"/>
<text text-anchor="middle" x="257" y="-122.3" font-family="sans-serif" font-size="14.00">aws_internet_gateway.myigw</text>
</g>
<!-- aws_vpc.myvpc -->
<g id="node6" class="node">
<title>aws_vpc.myvpc</title>
<polygon fill="none" stroke="black" points="116,-90 0,-90 0,-54 116,-54 116,-90"/>
<text text-anchor="middle" x="58" y="-68.3" font-family="sans-serif" font-size="14.00">aws_vpc.myvpc</text>
</g>
<!-- aws_internet_gateway.myigw&#45;&gt;aws_vpc.myvpc -->
<g id="edge1" class="edge">
<title>aws_internet_gateway.myigw&#45;&gt;aws_vpc.myvpc</title>
<path fill="none" stroke="black" d="M185.44,-107.97C174.24,-105.03 162.79,-101.97 152,-99 143.64,-96.7 134.87,-94.23 126.2,-91.76"/>
<polygon fill="black" stroke="black" points="127.05,-88.36 116.47,-88.96 125.12,-95.09 127.05,-88.36"/>
</g>
<!-- aws_route.default_route -->
<g id="node2" class="node">
<title>aws_route.default_route</title>
<polygon fill="none" stroke="black" points="608.5,-130 432.5,-130 432.5,-94 608.5,-94 608.5,-130"/>
<text text-anchor="middle" x="520.5" y="-108.3" font-family="sans-serif" font-size="14.00">aws_route.default_route</text>
</g>
<!-- aws_route.default_route&#45;&gt;aws_internet_gateway.myigw -->
<g id="edge2" class="edge">
<title>aws_route.default_route&#45;&gt;aws_internet_gateway.myigw</title>
<path fill="none" stroke="black" d="M432.42,-116.66C413.23,-117.69 392.62,-118.79 372.53,-119.87"/>
<polygon fill="black" stroke="black" points="372.2,-116.38 362.4,-120.41 372.57,-123.37 372.2,-116.38"/>
</g>
<!-- aws_route_table.myrt -->
<g id="node3" class="node">
<title>aws_route_table.myrt</title>
<polygon fill="none" stroke="black" points="336,-90 178,-90 178,-54 336,-54 336,-90"/>
<text text-anchor="middle" x="257" y="-68.3" font-family="sans-serif" font-size="14.00">aws_route_table.myrt</text>
</g>
<!-- aws_route.default_route&#45;&gt;aws_route_table.myrt -->
<g id="edge3" class="edge">
<title>aws_route.default_route&#45;&gt;aws_route_table.myrt</title>
<path fill="none" stroke="black" d="M432.42,-98.68C404.77,-94.45 374.17,-89.77 346.42,-85.52"/>
<polygon fill="black" stroke="black" points="346.75,-82.03 336.33,-83.98 345.69,-88.95 346.75,-82.03"/>
</g>
<!-- aws_route_table.myrt&#45;&gt;aws_vpc.myvpc -->
<g id="edge4" class="edge">
<title>aws_route_table.myrt&#45;&gt;aws_vpc.myvpc</title>
<path fill="none" stroke="black" d="M177.86,-72C160.78,-72 142.84,-72 126.23,-72"/>
<polygon fill="black" stroke="black" points="126.08,-68.5 116.08,-72 126.08,-75.5 126.08,-68.5"/>
</g>
<!-- aws_route_table_association.myrta -->
<g id="node4" class="node">
<title>aws_route_table_association.myrta</title>
<polygon fill="none" stroke="black" points="643,-63 398,-63 398,-27 643,-27 643,-63"/>
<text text-anchor="middle" x="520.5" y="-41.3" font-family="sans-serif" font-size="14.00">aws_route_table_association.myrta</text>
</g>
<!-- aws_route_table_association.myrta&#45;&gt;aws_route_table.myrt -->
<g id="edge5" class="edge">
<title>aws_route_table_association.myrta&#45;&gt;aws_route_table.myrt</title>
<path fill="none" stroke="black" d="M397.94,-57.55C380.6,-59.34 363.04,-61.15 346.49,-62.86"/>
<polygon fill="black" stroke="black" points="345.92,-59.4 336.33,-63.91 346.64,-66.37 345.92,-59.4"/>
</g>
<!-- aws_subnet.mysubnet -->
<g id="node5" class="node">
<title>aws_subnet.mysubnet</title>
<polygon fill="none" stroke="black" points="339.5,-36 174.5,-36 174.5,0 339.5,0 339.5,-36"/>
<text text-anchor="middle" x="257" y="-14.3" font-family="sans-serif" font-size="14.00">aws_subnet.mysubnet</text>
</g>
<!-- aws_route_table_association.myrta&#45;&gt;aws_subnet.mysubnet -->
<g id="edge6" class="edge">
<title>aws_route_table_association.myrta&#45;&gt;aws_subnet.mysubnet</title>
<path fill="none" stroke="black" d="M397.94,-32.45C381.74,-30.78 365.36,-29.09 349.79,-27.48"/>
<polygon fill="black" stroke="black" points="349.99,-23.98 339.69,-26.43 349.27,-30.94 349.99,-23.98"/>
</g>
<!-- aws_subnet.mysubnet&#45;&gt;aws_vpc.myvpc -->
<g id="edge7" class="edge">
<title>aws_subnet.mysubnet&#45;&gt;aws_vpc.myvpc</title>
<path fill="none" stroke="black" d="M185.44,-36.03C174.24,-38.97 162.79,-42.03 152,-45 143.64,-47.3 134.87,-49.77 126.2,-52.24"/>
<polygon fill="black" stroke="black" points="125.12,-48.91 116.47,-55.04 127.05,-55.64 125.12,-48.91"/>
</g>
</g>
</svg>
